<?xml version="1.0" encoding="UTF-8" standalone="no"?>
<svg
   xmlns:dc="http://purl.org/dc/elements/1.1/"
   xmlns:cc="http://creativecommons.org/ns#"
   xmlns:rdf="http://www.w3.org/1999/02/22-rdf-syntax-ns#"
   xmlns:svg="http://www.w3.org/2000/svg"
   xmlns="http://www.w3.org/2000/svg"
   xmlns:sodipodi="http://sodipodi.sourceforge.net/DTD/sodipodi-0.dtd"
   xmlns:inkscape="http://www.inkscape.org/namespaces/inkscape"
   sodipodi:docname="hdmi_orientation.svg"
   inkscape:version="1.0 (4035a4fb49, 2020-05-01)"
   id="svg8"
   version="1.1"
   viewBox="0 0 9 6"
   height="6mm"
   width="9mm">
  <defs
     id="defs2" />
  <sodipodi:namedview
     inkscape:snap-global="false"
     inkscape:document-rotation="0"
     inkscape:window-maximized="1"
     inkscape:window-y="115"
     inkscape:window-x="1912"
     inkscape:window-height="1387"
     inkscape:window-width="2560"
     inkscape:guide-bbox="true"
     showguides="true"
     showgrid="false"
     inkscape:current-layer="layer3"
     inkscape:document-units="mm"
     inkscape:cy="14.142777"
     inkscape:cx="14.589435"
     inkscape:zoom="64"
     inkscape:pageshadow="2"
     inkscape:pageopacity="0.0"
     borderopacity="1.0"
     bordercolor="#666666"
     pagecolor="#ffffff"
     id="base">
    <sodipodi:guide
       inkscape:locked="false"
       id="guide6855"
       orientation="1,0"
       position="-61.610119,183.69643" />
    <sodipodi:guide
       inkscape:locked="false"
       id="guide6857"
       orientation="0,1"
       position="240.01488,297.46726" />
    <sodipodi:guide
       inkscape:locked="false"
       id="guide6859"
       orientation="0,1"
       position="95.627974,69.547621" />
    <sodipodi:guide
       inkscape:locked="false"
       id="guide6861"
       orientation="1,0"
       position="278.9602,146.07953" />
  </sodipodi:namedview>
  <metadata
     id="metadata5">
    <rdf:RDF>
      <cc:Work
         rdf:about="">
        <dc:format>image/svg+xml</dc:format>
        <dc:type
           rdf:resource="http://purl.org/dc/dcmitype/StillImage" />
        <dc:title></dc:title>
      </cc:Work>
    </rdf:RDF>
  </metadata>
  <g
     inkscape:label="Calque 3"
     id="layer3"
     inkscape:groupmode="layer">
    <path
       sodipodi:nodetypes="cccsccccccccccsc"
       id="path868"
       d="M -0.00147647,0.93017577 1.4469401,0.11811756 3.912644,1.0940639 c 0,0 0.047247,0.010335 0.057582,0.047247 0.010335,0.036912 0.036912,0.603876 0.036912,0.603876 0,0 -0.00886,0.09597 -0.060535,0.1432176 -0.051677,0.047247 -0.144694,0.1107352 -0.144694,0.1107352 0,0 -0.05463,0.053153 -0.070871,0.091541 -0.01624,0.038388 -0.1579821,0.4783761 -0.1579821,0.4783761 l 0.5935408,-0.4104585 0.138788,-0.00886 1.7569987,0.7323288 1.2904345,-0.968564 -1.2933873,-0.503476 c 0,0 -0.3044772,-0.1748677 -0.1520765,-0.4001233 0.01135,-0.016776 0.3637311,-0.27411005 0.3637311,-0.27411005"
       style="fill:none;stroke:#ff0000;stroke-width:0.15;stroke-linecap:round;stroke-linejoin:round;stroke-miterlimit:4;stroke-dasharray:none;stroke-opacity:1" />
    <path
       id="path870"
       d="M 2.081779,0.36749558 2.0504584,-0.00208804"
       style="fill:none;stroke:#ff0000;stroke-width:0.15;stroke-linecap:round;stroke-linejoin:round;stroke-opacity:1;stroke-miterlimit:4;stroke-dasharray:none" />
    <path
       sodipodi:nodetypes="ccsscssccccssc"
       id="path872"
       d="m 0.00208804,3.5225288 0.17748367,0.083522 c 0,0 0.0856098,0.5804759 0.0939619,0.6117965 0.008352,0.031321 0.0447932,0.082665 0.0902684,0.059928 0.0454753,-0.022738 0.25321453,-0.1188559 0.2707845,-0.1240235 0.0175699,-0.00517 0.0537435,-0.016536 0.0878499,0.01447 0.0341064,0.031006 0.22014158,0.2377117 0.23047687,0.2480469 0.0103354,0.010335 0.0423747,0.03514 0.089917,0.00414 0.047542,-0.031006 0.3782715,-0.2594155 0.3782715,-0.2594155 l 0.036174,0.2583821 1.5058513,0.7658446 c 0,0 -0.230477,0.1767335 -0.3079917,0.2449462 -0.077515,0.068213 -0.160812,0.1762853 -0.1446939,0.3979087 0.00413,0.056844 0.015503,0.183968 0.015503,0.183968"
       style="fill:none;stroke:#ff0000;stroke-width:0.15;stroke-linecap:round;stroke-linejoin:miter;stroke-miterlimit:4;stroke-dasharray:none;stroke-opacity:1" />
    <path
       id="path874"
       d="M 2.6024251,6.0151366 C 2.5641846,5.9686279 2.5135416,5.9159179 2.508374,5.797062"
       style="fill:none;stroke:#ff0000;stroke-width:0.025;stroke-linecap:butt;stroke-linejoin:miter;stroke-opacity:1;stroke-miterlimit:4;stroke-dasharray:none" />
    <path
       id="path876"
       d="M 0.17983398,3.6111492 C 0.16433104,3.5532716 0.20773926,3.4623211 0.25424804,3.4333823 0.30075682,3.4044434 3.9036376,1.0914062 3.9036376,1.0914062"
       style="fill:none;stroke:#ff0000;stroke-width:0.15;stroke-linecap:round;stroke-linejoin:round;stroke-opacity:1;stroke-miterlimit:4;stroke-dasharray:none" />
    <path
       id="path880"
       d="M 0.77928059,3.6152833 0.90743814,3.7744466 0.98701986,3.7196696 0.86816405,3.554305 Z"
       style="fill:#ff0000;stroke:#ff0000;stroke-width:0.025;stroke-linecap:round;stroke-linejoin:round;stroke-miterlimit:4;stroke-dasharray:none;stroke-opacity:1;fill-opacity:1" />
    <path
       id="path882"
       d="M 1.0697021,3.4271809 1.1916585,3.5863445 1.2681396,3.532601 1.1544515,3.3693033 Z"
       style="fill:#ff0000;stroke:#ff0000;stroke-width:0.025;stroke-linecap:round;stroke-linejoin:round;stroke-miterlimit:4;stroke-dasharray:none;stroke-opacity:1;fill-opacity:1" />
    <path
       id="path884"
       d="M 1.3539225,3.2421793 1.4376385,3.1853353 1.546159,3.345532 1.473812,3.401343 Z"
       style="fill:#ff0000;stroke:#ff0000;stroke-width:0.025;stroke-linecap:round;stroke-linejoin:round;stroke-miterlimit:4;stroke-dasharray:none;stroke-opacity:1;fill-opacity:1" />
    <path
       id="path886"
       d="m 1.6257405,3.0602782 0.08785,-0.054777 0.1105875,0.1591635 -0.074414,0.051676 z"
       style="fill:#ff0000;stroke:#ff0000;stroke-width:0.025;stroke-linecap:round;stroke-linejoin:round;stroke-miterlimit:4;stroke-dasharray:none;stroke-opacity:1;fill-opacity:1" />
    <path
       id="path888"
       d="m 1.8996256,2.8794109 0.080615,-0.048576 0.1147216,0.1539957 -0.071313,0.05271 z"
       style="fill:#ff0000;stroke:#ff0000;stroke-width:0.025;stroke-linecap:round;stroke-linejoin:round;stroke-miterlimit:4;stroke-dasharray:none;stroke-opacity:1;fill-opacity:1" />
    <path
       id="path890"
       d="m 2.1714437,2.7026774 0.080615,-0.05271 0.1126546,0.1570964 -0.073381,0.053743 z"
       style="fill:#ff0000;stroke:#ff0000;stroke-width:0.025;stroke-linecap:round;stroke-linejoin:round;stroke-miterlimit:4;stroke-dasharray:none;stroke-opacity:1;fill-opacity:1" />
    <path
       id="path892"
       d="m 2.436027,2.5290446 0.076481,-0.049609 0.1116211,0.1519287 -0.069246,0.053744 z"
       style="fill:#ff0000;stroke:#ff0000;stroke-width:0.025;stroke-linecap:round;stroke-linejoin:round;stroke-miterlimit:4;stroke-dasharray:none;stroke-opacity:1;fill-opacity:1" />
    <path
       id="path894"
       d="M 2.6944092,2.3595459 2.776058,2.308903 2.8887126,2.4649658 2.8142985,2.5145752 Z"
       style="fill:#ff0000;stroke:#ff0000;stroke-width:0.025;stroke-linecap:round;stroke-linejoin:round;stroke-miterlimit:4;stroke-dasharray:none;stroke-opacity:1;fill-opacity:1" />
    <path
       id="path896"
       d="m 2.9548584,2.1900472 0.073381,-0.048576 0.1116211,0.1529623 -0.068213,0.050643 z"
       style="fill:#ff0000;stroke:#ff0000;stroke-width:0.025;stroke-linecap:round;stroke-linejoin:round;stroke-miterlimit:4;stroke-dasharray:none;stroke-opacity:1;fill-opacity:1" />
    <path
       sodipodi:nodetypes="csccccscccc"
       id="path898"
       d="m 0.45310536,3.9917121 c 0,0 0.11839204,-0.058465 0.1549328,-0.078928 0.0365408,-0.020463 0.11546879,-0.00292 0.15931771,0.032156 0.0438489,0.035079 0.0862362,0.076005 0.0862362,0.076005 L 3.525452,2.2392175 c 0,0 0.00292,-0.010232 0.017539,-0.059927 0.014616,-0.049695 0.074094,-0.2268789 0.1987817,-0.3390982 0.029232,-0.026309 0.059927,-0.052619 0.059927,-0.052619 l -0.00243,-0.161463 -3.35639716,2.2018993 z"
       style="fill:none;stroke:#ff0000;stroke-width:0.15;stroke-linecap:round;stroke-linejoin:round;stroke-miterlimit:4;stroke-dasharray:none;stroke-opacity:1" />
    <path
       id="path900"
       d="M 0.30695799,4.2746744 -0.00206706,4.111377"
       style="fill:none;stroke:#ff0000;stroke-width:0.15;stroke-linecap:round;stroke-linejoin:round;stroke-miterlimit:4;stroke-dasharray:none;stroke-opacity:1" />
    <path
       id="path904"
       d="m 1.4221354,4.1671874 -0.00413,-0.066146 v -0.09095 L 3.573946,2.5652184"
       style="fill:none;stroke:#ff0000;stroke-width:0.15;stroke-linecap:round;stroke-linejoin:round;stroke-miterlimit:4;stroke-dasharray:none;stroke-opacity:1" />
    <path
       id="path906"
       d="m 1.4138672,4.1093098 1.7921385,0.901237"
       style="fill:none;stroke:#ff0000;stroke-width:0.15;stroke-linecap:round;stroke-linejoin:round;stroke-miterlimit:4;stroke-dasharray:none;stroke-opacity:1" />
    <path
       sodipodi:nodetypes="ccsssccc"
       id="path910"
       d="m 2.9744952,5.1800455 0.5250326,0.2728516 c 0,0 1.1657743,-0.8661376 1.2112955,-0.9177735 0.138493,-0.1570963 0.24598,-0.4836913 0.396875,-0.5953124 C 5.2585936,3.8281901 5.5789873,3.8095864 5.7443519,3.6958984 5.9097165,3.5822101 6.680729,3.0303059 6.680729,3.0303059 L 6.1680988,2.8111979 Z"
       style="fill:#ff0000;fill-opacity:1;stroke:#ff0000;stroke-width:0.15;stroke-linecap:round;stroke-linejoin:round;stroke-miterlimit:4;stroke-dasharray:none;stroke-opacity:1" />
    <path
       id="path916"
       d="m 1.6805176,4.0162921 0.1384928,-0.099219 1.556494,0.7689453 -0.144694,0.1116211 z"
       style="fill:#ff0000;stroke:#ff0000;stroke-width:0.025;stroke-linecap:butt;stroke-linejoin:round;stroke-miterlimit:4;stroke-dasharray:none;stroke-opacity:1;fill-opacity:1" />
    <path
       id="path930"
       d="M 1.9616373,3.8240559 2.1063314,3.7248372 3.6628255,4.4751788 3.5181315,4.5867999 Z"
       style="fill:#ff0000;fill-opacity:1;stroke:#ff0000;stroke-width:0.025;stroke-linecap:butt;stroke-linejoin:round;stroke-miterlimit:4;stroke-dasharray:none;stroke-opacity:1" />
    <path
       id="path932"
       d="m 2.2427571,3.6297526 0.144694,-0.095085 1.5564942,0.7400065 -0.1467612,0.107487 z"
       style="fill:#ff0000;fill-opacity:1;stroke:#ff0000;stroke-width:0.025;stroke-linecap:butt;stroke-linejoin:round;stroke-miterlimit:4;stroke-dasharray:none;stroke-opacity:1" />
    <path
       id="path934"
       d="M 2.5197428,3.4437174 2.6582356,3.3465656 4.2126627,4.0741697 4.0762369,4.1754557 Z"
       style="fill:#ff0000;fill-opacity:1;stroke:#ff0000;stroke-width:0.025;stroke-linecap:butt;stroke-linejoin:round;stroke-miterlimit:4;stroke-dasharray:none;stroke-opacity:1" />
    <path
       id="path936"
       d="M 2.7863932,3.2576823 2.9372882,3.1584633 4.4751788,3.875732 4.3428872,3.983219 Z"
       style="fill:#ff0000;fill-opacity:1;stroke:#ff0000;stroke-width:0.025;stroke-linecap:butt;stroke-linejoin:round;stroke-miterlimit:4;stroke-dasharray:none;stroke-opacity:1" />
    <path
       id="path938"
       d="M 3.0551106,3.073714 3.1956705,2.9786294 4.7438963,3.685563 4.6054036,3.790983 Z"
       style="fill:#ff0000;fill-opacity:1;stroke:#ff0000;stroke-width:0.025;stroke-linecap:butt;stroke-linejoin:round;stroke-miterlimit:4;stroke-dasharray:none;stroke-opacity:1" />
    <path
       id="path940"
       d="M 3.3238281,2.891813 3.4581867,2.800863 5.0002114,3.4933273 4.8679197,3.5884123 Z"
       style="fill:#ff0000;fill-opacity:1;stroke:#ff0000;stroke-width:0.025;stroke-linecap:butt;stroke-linejoin:round;stroke-miterlimit:4;stroke-dasharray:none;stroke-opacity:1" />
    <path
       id="path942"
       d="M 3.578076,2.7099119 3.7145018,2.6230957 5.2565265,3.2990234 5.1221679,3.4023763 3.5698078,2.7099119 Z"
       style="fill:#ff0000;fill-opacity:1;stroke:#ff0000;stroke-width:0.025;stroke-linecap:butt;stroke-linejoin:round;stroke-miterlimit:4;stroke-dasharray:none;stroke-opacity:1" />
    <path
       id="path944"
       d="M 3.8447265,2.5404134 3.96875,2.4473958 5.5045734,3.1150552 5.384684,3.2080729 Z"
       style="fill:#ff0000;fill-opacity:1;stroke:#ff0000;stroke-width:0.025;stroke-linecap:butt;stroke-linejoin:round;stroke-miterlimit:4;stroke-dasharray:none;stroke-opacity:1" />
    <path
       id="path946"
       d="M 4.0948403,2.3647135 4.2188637,2.2820312 5.7650226,2.9310872 5.630664,3.0282388 Z"
       style="fill:#ff0000;fill-opacity:1;stroke:#ff0000;stroke-width:0.025;stroke-linecap:butt;stroke-linejoin:round;stroke-miterlimit:4;stroke-dasharray:none;stroke-opacity:1" />
    <path
       sodipodi:nodetypes="cssc"
       id="path948"
       d="m 5.8668101,1.1157094 c 0,0 -0.00463,0.2485484 -0.00463,0.3208954 0,0.072347 0.09095,0.2191081 0.2087727,0.2666504 0.1178224,0.047542 1.0355958,0.4030762 1.0355958,0.4030762"
       style="fill:none;fill-opacity:1;stroke:#ff0000;stroke-width:0.15;stroke-linecap:butt;stroke-linejoin:round;stroke-miterlimit:4;stroke-dasharray:none;stroke-opacity:1" />
    <path
       sodipodi:nodetypes="csscssssssssc"
       id="path950"
       d="M 8.3312922,5.7062044 C 7.5770911,5.4255714 5.3526449,4.3139484 5.2255208,4.2509032 5.0983967,4.187858 5.1645425,3.9811523 5.4353271,4.0917399 5.7061115,4.2023276 5.9128172,4.295345 5.9128172,4.295345 c 0,0 0.3469415,-0.014054 0.3555339,-0.028939 0.027944,-0.04841 0.1400164,-0.1183404 0.2697509,-0.1147217 0.00855,2.386e-4 0.1510636,-0.099139 0.2573488,-0.082682 0.016511,0.00256 0.1870686,-0.1384927 0.3048908,-0.077514 0.1178224,0.060978 0.6614583,0.2842202 0.7400065,0.3224607 0.078548,0.038241 0.2697511,0.1881023 0.3224609,0.2790528 0.05271,0.090951 0.2945559,0.1457275 0.3813723,0.2335774 0.086816,0.08785 0.3048907,0.3028241 0.1343586,0.5343345 C 8.5080077,5.5924235 8.3312922,5.7062044 8.3312922,5.7062044 Z"
       style="fill:none;fill-opacity:1;stroke:#ff0000;stroke-width:0.15;stroke-linecap:round;stroke-linejoin:round;stroke-miterlimit:4;stroke-dasharray:none;stroke-opacity:1" />
    <path
       id="path952"
       d="m 6.2689319,4.2635754 c 0,0 0.447259,0.3610227 0.5188788,0.3931785 0.07162,0.032156 0.2163212,0.077466 0.2543236,0.074543 0.038002,-0.00292 0.4048715,-0.00585 0.5934218,0.089159"
       style="fill:none;fill-opacity:1;stroke:#ff0000;stroke-width:0.15;stroke-linecap:round;stroke-linejoin:round;stroke-miterlimit:4;stroke-dasharray:none;stroke-opacity:1" />
    <path
       id="path954"
       d="M 6.5261788,4.1612613 7.1386019,4.6304445"
       style="fill:none;fill-opacity:1;stroke:#ff0000;stroke-width:0.15;stroke-linecap:round;stroke-linejoin:round;stroke-miterlimit:4;stroke-dasharray:none;stroke-opacity:1" />
    <path
       id="path956"
       d="M 6.7995037,4.0750251 7.3593081,4.4798966"
       style="fill:none;fill-opacity:1;stroke:#ff0000;stroke-width:0.15;stroke-linecap:round;stroke-linejoin:round;stroke-miterlimit:4;stroke-dasharray:none;stroke-opacity:1" />
    <path
       id="path958"
       d="m 7.0757517,3.9741726 c 0,0 0.368331,0.287941 0.3990253,0.3142504 C 7.505471,4.314733 7.53178,4.358581 7.486469,4.399507 7.441158,4.440433 7.0129009,4.7152192 7.0129009,4.7152192"
       style="fill:none;fill-opacity:1;stroke:#ff0000;stroke-width:0.15;stroke-linecap:round;stroke-linejoin:round;stroke-miterlimit:4;stroke-dasharray:none;stroke-opacity:1" />
    <path
       id="path960"
       d="M 5.8962162,4.288423 6.7381154,4.9812357"
       style="fill:none;fill-opacity:1;stroke:#ff0000;stroke-width:0.15;stroke-linecap:round;stroke-linejoin:round;stroke-miterlimit:4;stroke-dasharray:none;stroke-opacity:1" />
    <path
       sodipodi:nodetypes="cscsscc"
       id="path962"
       d="M 8.1120476,4.5369001 C 8.3137527,5.1420151 7.2116835,5.1770941 6.8521225,5.016315 6.4925614,4.8555356 8.3342154,5.7178974 8.3342154,5.7178974 c 0,0 0.3274052,-0.3098657 0.359561,-0.3683307 C 8.7259323,5.2911015 8.6996237,4.9198474 8.5505368,4.8263029 8.4014505,4.7327587 8.2055919,4.6509074 8.2055919,4.6509074 Z"
       style="fill:#ff0000;fill-opacity:1;stroke:#ff0000;stroke-width:0.15;stroke-linecap:round;stroke-linejoin:round;stroke-miterlimit:4;stroke-dasharray:none;stroke-opacity:1" />
  </g>
</svg>
