<?xml version="1.0" encoding="UTF-8" standalone="no"?>
<!-- Created with Inkscape (http://www.inkscape.org/) -->

<svg
   xmlns:dc="http://purl.org/dc/elements/1.1/"
   xmlns:cc="http://creativecommons.org/ns#"
   xmlns:rdf="http://www.w3.org/1999/02/22-rdf-syntax-ns#"
   xmlns:svg="http://www.w3.org/2000/svg"
   xmlns="http://www.w3.org/2000/svg"
   xmlns:sodipodi="http://sodipodi.sourceforge.net/DTD/sodipodi-0.dtd"
   xmlns:inkscape="http://www.inkscape.org/namespaces/inkscape"
   width="12mm"
   height="10.675mm"
   viewBox="0 0 12 10.675"
   version="1.1"
   id="svg8"
   sodipodi:docname="this_side_up.svg"
   inkscape:version="0.92.3 (2405546, 2018-03-11)">
  <defs
     id="defs2" />
  <sodipodi:namedview
     id="base"
     pagecolor="#ffffff"
     bordercolor="#666666"
     borderopacity="1.0"
     inkscape:pageopacity="0.0"
     inkscape:pageshadow="2"
     inkscape:zoom="22.4"
     inkscape:cx="20.523588"
     inkscape:cy="18.658456"
     inkscape:document-units="mm"
     inkscape:current-layer="layer1"
     showgrid="false"
     inkscape:window-width="2560"
     inkscape:window-height="1387"
     inkscape:window-x="1912"
     inkscape:window-y="115"
     inkscape:window-maximized="1" />
  <metadata
     id="metadata5">
    <rdf:RDF>
      <cc:Work
         rdf:about="">
        <dc:format>image/svg+xml</dc:format>
        <dc:type
           rdf:resource="http://purl.org/dc/dcmitype/StillImage" />
        <dc:title></dc:title>
      </cc:Work>
    </rdf:RDF>
  </metadata>
  <g
     inkscape:label="Calque 1"
     inkscape:groupmode="layer"
     id="layer1"
     transform="translate(0,-286.325)">
    <path
       style="fill:#000000;stroke-width:0.01405157"
       d="m 4.429031,294.14204 c -0.3457814,-0.003 -0.3979451,-0.002 -0.4051449,0.0172 -0.00447,0.0117 -6.35e-4,0.0307 0.00896,0.0427 v -0.002 c 0.014954,0.0181 0.074594,0.0199 0.4058335,0.0172 l 0.3879194,-0.003 v -0.0351 -0.0344 z"
       id="path5215"
       inkscape:connector-curvature="0" />
    <path
       style="fill:#000000;stroke-width:0.01405157"
       d="m 3.0819936,292.97346 c -0.1575113,0.002 -0.1752852,0.004 -0.1887919,0.0296 -0.026613,0.0496 -0.00582,0.0675 0.077859,0.0675 0.061974,0 0.079906,0.005 0.09164,0.0269 0.00855,0.0158 0.014469,0.13222 0.014469,0.27906 0,0.13857 0.00674,0.28608 0.01447,0.32728 0.016439,0.0867 0.062464,0.14395 0.1474506,0.18328 v 10e-4 c 0.080903,0.0374 0.2811722,0.0366 0.3644927,-10e-4 0.073171,-0.0334 0.1277303,-0.0944 0.1474503,-0.16536 0.00788,-0.0288 0.014429,-0.17999 0.014471,-0.33555 6.67e-5,-0.21257 0.00442,-0.287 0.017914,-0.29766 0.00988,-0.009 0.052885,-0.0166 0.095085,-0.0193 0.060627,-0.003 0.077571,-0.01 0.081304,-0.0296 0.010806,-0.0572 -0.015589,-0.0627 -0.2473585,-0.0613 l -0.2204872,10e-4 -0.00482,0.0448 c -0.00435,0.0452 -0.00405,0.0456 0.069591,0.0496 0.067987,0.004 0.074061,0.007 0.084061,0.0448 0.006,0.0224 0.00987,0.16481 0.00827,0.31626 -0.00353,0.32501 -0.00813,0.33699 -0.1364265,0.37552 -0.1030363,0.0308 -0.2111189,0.0109 -0.2728525,-0.051 l -0.042721,-0.042 -0.00482,-0.28457 c -0.00625,-0.34928 -0.00391,-0.35782 0.09853,-0.36449 0.0684,-0.004 0.074682,-0.008 0.078549,-0.0413 0.00387,-0.0327 -8.467e-4,-0.0368 -0.054433,-0.0462 -0.032543,-0.005 -0.1373556,-0.009 -0.2328893,-0.008 z"
       id="path5213"
       inkscape:connector-curvature="0" />
    <path
       style="fill:#000000;stroke-width:0.01405157"
       d="m 2.3791915,291.82555 c -0.011267,-0.0292 -0.0561,-0.0237 -0.079927,0.0103 -0.020746,0.0288 -0.022214,0.0289 -0.074414,0.004 -0.1117817,-0.0532 -0.2988467,-0.0415 -0.382407,0.0234 -0.097227,0.0756 -0.1247694,0.29327 -0.047543,0.37621 0.033285,0.0357 0.077395,0.0494 0.2694075,0.0854 0.188046,0.0352 0.2111616,0.0522 0.2115296,0.1502 4.198e-4,0.11582 -0.049421,0.16713 -0.1798346,0.18259 -0.054273,0.006 -0.080938,9.2e-4 -0.1398714,-0.0289 -0.085107,-0.0432 -0.1010277,-0.069 -0.1212678,-0.19155 -0.013867,-0.0833 -0.017978,-0.0916 -0.050299,-0.0916 h -0.03514 v 0.19017 c 0,0.17229 0.0022,0.1903 0.025494,0.1943 0.014093,0.003 0.03757,-0.005 0.051677,-0.0186 0.024054,-0.0212 0.029817,-0.0206 0.086817,0.007 0.050474,0.0244 0.081812,0.0275 0.1812127,0.0248 0.1060551,-0.004 0.1263129,-0.009 0.1715664,-0.0434 0.028213,-0.0215 0.058902,-0.0574 0.068902,-0.0799 0.00997,-0.0225 0.02265,-0.0413 0.02825,-0.0413 0.017691,0 0.028604,-0.0964 0.018603,-0.1633 -0.017126,-0.1142 -0.089595,-0.1588 -0.3100598,-0.1888 -0.075174,-0.0103 -0.129156,-0.0264 -0.1646761,-0.0496 -0.04776,-0.0312 -0.052366,-0.0399 -0.052366,-0.0965 0,-0.0886 0.023436,-0.1289 0.094396,-0.1633 0.050088,-0.0244 0.076039,-0.0287 0.1343592,-0.0207 0.039667,0.005 0.089937,0.0196 0.1123105,0.0331 0.052093,0.0304 0.094396,0.1129 0.094396,0.18397 0,0.0727 0.011537,0.0999 0.04203,0.0999 0.047373,0 0.056191,-0.0334 0.055122,-0.20326 -5.327e-4,-0.0909 -0.00427,-0.17399 -0.00827,-0.18466 z"
       id="path5211"
       inkscape:connector-curvature="0" />
    <path
       style="fill:#000000;stroke-width:0.01405157"
       d="m 2.7416169,291.81315 c -0.2159714,0 -0.2462544,0.003 -0.2597612,0.0241 -0.0232,0.0367 0.00946,0.0592 0.080616,0.0565 0.1114697,-0.005 0.1097772,-0.0115 0.1123105,0.37069 0.00253,0.38303 0.00153,0.38447 -0.095774,0.38447 -0.032347,0 -0.070732,0.009 -0.085439,0.02 -0.02276,0.0165 -0.023859,0.0224 -0.00758,0.042 v 10e-4 c 0.016475,0.0198 0.051564,0.022 0.2597612,0.0193 l 0.2404684,-0.004 v -0.0351 c 0,-0.0283 -0.00743,-0.0349 -0.042719,-0.0358 -0.023187,-0.001 -0.065725,-0.006 -0.095085,-0.0124 l -0.053744,-0.0103 0.00413,-0.35829 c 0.00467,-0.39993 0.00236,-0.39105 0.1026642,-0.37758 0.06824,0.009 0.09515,-0.006 0.088884,-0.051 l -0.00482,-0.0338 z"
       id="path5209"
       inkscape:connector-curvature="0" />
    <path
       style="fill:#000000;stroke-width:0.01405157"
       d="m 4.0328435,291.8035 v 0.0434 c 0,0.0236 0.00447,0.043 0.010336,0.0434 0.00579,10e-4 0.04081,0.003 0.07717,0.004 0.036373,0.003 0.071037,0.008 0.077171,0.0152 0.00613,0.006 0.011024,0.16505 0.011024,0.35347 0,0.38119 -0.00169,0.38723 -0.093018,0.38792 -0.075747,6.7e-4 -0.097152,0.0109 -0.097152,0.0469 0,0.0181 0.00687,0.0352 0.014471,0.0379 v -10e-4 c 0.00771,0.003 0.186056,0.004 0.3961874,0.003 0.3498492,-0.002 0.3834282,-0.005 0.4003213,-0.0276 0.026413,-0.0361 0.025873,-0.31975 -7.055e-4,-0.34175 -0.043907,-0.0365 -0.061769,-0.004 -0.066835,0.11989 -0.00651,0.15824 -0.00846,0.15985 -0.2308222,0.15985 -0.1291539,0 -0.1751471,-0.004 -0.1874139,-0.0193 -0.010799,-0.013 -0.014937,-0.0759 -0.012404,-0.18673 l 0.00346,-0.16605 0.073725,-0.004 c 0.095974,-0.005 0.1302249,0.0257 0.1302249,0.11713 0,0.0662 0.028304,0.0964 0.059945,0.0648 0.012637,-0.0127 0.019579,-0.25909 0.011712,-0.41342 -8.467e-4,-0.0165 -0.012891,-0.0241 -0.036518,-0.0241 -0.032494,0 -0.034717,0.005 -0.03514,0.0668 -2.533e-4,0.0368 -0.00945,0.0782 -0.019981,0.0916 -0.022006,0.0296 -0.1017764,0.0458 -0.1550298,0.0324 -0.036387,-0.009 -0.036384,-0.009 -0.032385,-0.14538 0.00356,-0.12119 0.00663,-0.13743 0.032385,-0.1509 0.041068,-0.0205 0.3511877,-0.006 0.3748278,0.0179 0.010601,0.0107 0.020803,0.0666 0.024804,0.13367 0.0068,0.11267 0.00866,0.11576 0.042719,0.11576 0.035186,0 0.034717,-3.2e-4 0.038585,-0.15503 0.00581,-0.22851 0.042035,-0.20831 -0.4244373,-0.21498 z"
       id="path5207"
       inkscape:connector-curvature="0" />
    <path
       style="fill:#000000;stroke-width:0.01405157"
       d="m 3.8247589,290.64457 -0.2342675,0.001 -0.00482,0.0386 c -0.00419,0.0373 -9.525e-4,0.0386 0.052366,0.0386 0.031066,0 0.072213,0.007 0.09164,0.0165 l 0.03514,0.0159 0.00413,0.33693 c 0.00463,0.39036 0.00474,0.3893 -0.1005971,0.3893 -0.071947,0 -0.1092496,0.0255 -0.094396,0.0641 l 7.055e-4,7e-4 c 0.00708,0.0185 0.043083,0.0199 0.2494261,0.0172 0.2134472,-0.003 0.2425158,-0.006 0.2563159,-0.0283 0.021999,-0.0352 -0.009,-0.0521 -0.09853,-0.0524 -0.055347,-1.3e-4 -0.074793,-0.005 -0.081993,-0.0241 -0.00507,-0.0134 -0.00884,-0.17318 -0.00827,-0.35485 8.467e-4,-0.26224 0.00516,-0.33456 0.020669,-0.35002 0.010735,-0.0104 0.049883,-0.0207 0.086817,-0.022 0.075107,-0.003 0.1079394,-0.032 0.077859,-0.0682 -0.014185,-0.0175 -0.059821,-0.0206 -0.252182,-0.0193 z m 0.9811667,0.001 c -0.021922,0 -0.040232,0.0109 -0.048232,0.0289 l -0.012404,0.0283 -0.057878,-0.0283 c -0.045787,-0.024 -0.083422,-0.0289 -0.1839686,-0.0282 -0.1101577,6.7e-4 -0.1331452,0.005 -0.1770785,0.0351 -0.08556,0.0582 -0.1029766,0.093 -0.1081765,0.21016 -0.00838,0.18672 0.027365,0.22238 0.2583831,0.25838 0.0804,0.0127 0.1669795,0.0328 0.1929261,0.0448 0.1350099,0.0644 0.06869,0.26954 -0.095085,0.29421 -0.072084,0.0108 -0.1642183,-0.0107 -0.2101516,-0.0489 -0.03832,-0.0318 -0.064768,-0.10313 -0.064768,-0.17433 0,-0.0695 -0.02515,-0.10028 -0.069591,-0.0868 -0.027055,0.009 -0.028251,0.0203 -0.028251,0.19017 0,0.17327 0.00102,0.18083 0.030318,0.19017 0.021308,0.007 0.035854,0.003 0.048921,-0.0152 0.017854,-0.0244 0.02128,-0.0247 0.085439,0.003 0.074723,0.0329 0.2166088,0.0412 0.3011025,0.0179 0.056848,-0.0157 0.1309643,-0.0909 0.161231,-0.1633 0.013201,-0.0319 0.016044,-0.0728 0.00964,-0.13436 -0.014647,-0.14053 -0.047502,-0.16079 -0.3348646,-0.20946 -0.1148977,-0.0195 -0.158613,-0.0443 -0.1832797,-0.10335 -0.051282,-0.12274 0.069139,-0.24705 0.2184197,-0.22531 0.1387381,0.0202 0.210366,0.0964 0.2108408,0.22324 2.667e-4,0.0733 0.015505,0.0976 0.057878,0.091 0.033525,-0.005 0.033761,-0.005 0.033761,-0.20188 v -0.19637 z"
       id="path5205"
       inkscape:connector-curvature="0" />
    <path
       style="fill:#000000;stroke-width:0.01405157"
       d="m 1.9843822,290.63975 c -0.2382955,0 -0.3458406,0.006 -0.3727607,0.0179 l -0.037896,0.0172 v 0.16536 0.16468 h 0.04203 0.04203 v -0.11231 c -10e-8,-0.11171 8.184e-4,-0.11272 0.046164,-0.14125 0.035093,-0.022 0.05998,-0.0273 0.1074873,-0.0207 0.1027738,0.013 0.099431,0.002 0.099219,0.35691 -2.534e-4,0.38456 3.96e-5,0.38483 -0.1192008,0.3955 -0.08428,0.007 -0.1063191,0.0254 -0.087506,0.0744 0.00876,0.0229 0.4801723,0.0235 0.5029858,7e-4 0.00867,-0.009 0.011957,-0.0292 0.00689,-0.0455 -0.00779,-0.0256 -0.021135,-0.0296 -0.076481,-0.0296 -0.1206538,0 -0.1169516,0.0117 -0.1157556,-0.38723 l 6.879e-4,-0.35072 0.046164,-0.0103 c 0.054908,-0.0121 0.1626115,5.3e-4 0.1750115,0.0207 0.0048,0.008 0.00948,0.0655 0.010335,0.12815 0.00148,0.10814 0.00309,0.11452 0.03514,0.11852 0.01844,0.003 0.038075,-9.9e-4 0.043408,-0.0103 0.015229,-0.0247 0.015836,-0.27639 6.88e-4,-0.31626 l -0.01378,-0.0358 z m 0.6290767,0.002 -0.1894809,0.004 -0.00413,0.0379 c -0.0046,0.0399 0.00932,0.0458 0.130225,0.0565 0.034173,0.003 0.044477,0.012 0.051677,0.0462 0.01508,0.0711 0.012844,0.58673 -0.00276,0.64286 l -0.014469,0.0524 H 2.50735 c -0.079905,0 -0.1036318,0.0237 -0.074414,0.062 0.014401,0.0164 0.058978,0.0207 0.2308222,0.0207 0.1296112,0 0.218732,-0.004 0.2239321,-0.0131 0.00483,-0.008 0.00493,-0.0273 0,-0.0427 -0.00707,-0.0212 -0.021458,-0.0276 -0.069591,-0.0276 -0.03332,0 -0.067392,-0.007 -0.075792,-0.0179 -0.015067,-0.0182 -0.026349,-0.31451 -0.012402,-0.32797 0.011372,-0.0101 0.4224836,-0.005 0.4340836,0.007 0.018897,0.019 0.018351,0.2947 -6.879e-4,0.31763 -0.0098,0.0119 -0.046692,0.0228 -0.083372,0.0255 -0.059494,0.004 -0.065457,0.007 -0.065457,0.0393 v 0.0351 l 0.2349564,0.004 0.2356454,0.003 v -0.042 c 0,-0.0419 -0.00106,-0.0427 -0.075792,-0.0427 -0.051947,0 -0.080907,-0.007 -0.093707,-0.022 -0.013813,-0.0166 -0.020271,-0.10703 -0.024805,-0.35347 -0.00691,-0.37804 -0.00994,-0.36932 0.1123105,-0.36932 0.060413,0 0.068348,-0.004 0.076481,-0.0358 0.00496,-0.0196 0.00396,-0.0388 -0.00138,-0.0455 -0.011022,-0.0107 -0.3933764,-0.0183 -0.4320166,-0.008 -0.014587,0.004 -0.024805,0.0194 -0.024805,0.0386 0,0.0327 0.030168,0.0492 0.090262,0.0496 0.058867,4.2e-4 0.071635,0.0326 0.066835,0.16743 l -0.00482,0.12678 -0.1639872,0.003 c -0.090274,0.003 -0.1910786,0.003 -0.223932,0 l -0.059256,-0.003 v -0.13918 c 0,-0.15544 0.00262,-0.15921 0.1123106,-0.16055 0.042613,-8.1e-4 0.049321,-0.006 0.053055,-0.0386 0.00381,-0.0331 -0.0015,-0.0389 -0.04203,-0.0469 -0.025588,-0.004 -0.1320007,-0.007 -0.2363344,-0.004 z"
       id="path5203"
       inkscape:connector-curvature="0" />
    <path
       style="fill:#000000;stroke-width:0.01405157"
       d="m 3.8288931,292.63446 c 0.04389,-0.0382 0.089839,-0.072 0.1205785,-0.13435 0.029866,-0.0607 0.034463,-0.0885 0.034452,-0.23083 -1.34e-5,-0.14688 -0.00355,-0.16826 -0.037896,-0.2384 -0.050908,-0.10421 -0.062826,-0.1163 -0.159853,-0.1695 l -0.083372,-0.0462 -0.2804319,-10e-4 0.040652,0.0813 c 0.029107,-0.002 0.059747,-0.004 0.100597,-7.1e-4 0.1289888,0.01 0.2059175,0.0496 0.2645843,0.13643 0.041424,0.0613 0.04272,0.0679 0.04272,0.22462 0,0.13629 -0.00415,0.17184 -0.029626,0.22531 -0.014679,0.0307 -0.042943,0.0361 -0.060634,0.0565 z"
       id="path5201"
       inkscape:connector-curvature="0" />
    <path
       style="fill:#000000;stroke-width:0.01405157"
       d="m 3.8288931,292.63446 -0.048232,-0.0971 c -0.028416,0.0328 -0.050296,0.0735 -0.097841,0.0903 -0.068788,0.0245 -0.2347634,0.0286 -0.2721635,0.007 -0.02232,-0.013 -0.024116,-0.0466 -0.024116,-0.37207 v -0.35691 l 0.036518,-0.01 c 0.00574,-0.001 0.028399,-4e-5 0.039963,-7e-4 l -0.040652,-0.0813 h -0.028939 l -0.3093707,-7.1e-4 v 0.042 c 0,0.0419 9.278e-4,0.042 0.079927,0.042 0.043733,0 0.084551,0.006 0.090951,0.0117 0.014133,0.014 0.024669,0.5825 0.012402,0.6649 -0.010213,0.0683 -0.048455,0.0919 -0.125402,0.0799 -0.052677,-0.009 -0.074806,0.0149 -0.058567,0.0592 0.00763,0.0187 0.045897,0.0219 0.3203951,0.0179 0.2893731,-0.004 0.3174399,-0.007 0.3706937,-0.0358 0.022006,-0.0117 0.034622,-0.0434 0.054433,-0.0606 z"
       id="path5199"
       inkscape:connector-curvature="0" />
    <path
       style="fill:#000000;stroke-width:0.01405157"
       d="m 4.8052367,293.14227 c -0.00691,-0.0277 -0.00409,-0.0695 -0.034453,-0.0958 -0.029492,-0.0256 -0.076189,-0.0519 -0.1040423,-0.0572 -0.027852,-0.007 -0.183595,-0.0103 -0.3458889,-0.0103 H 4.1561782 l 0.1715664,0.12678 v -0.0317 l 0.095085,-0.008 c 0.173899,-0.0149 0.2380243,0.0361 0.2687186,0.12127 z"
       id="path5197"
       inkscape:connector-curvature="0" />
    <path
       style="fill:#000000;stroke-width:0.01405157"
       d="m 4.8052367,293.14227 -0.1136887,0.0455 c 0.00408,0.0113 0.033835,0.003 0.035829,0.0159 0.012199,0.0813 -0.017833,0.1529 -0.077859,0.18396 -0.032618,0.0161 -0.084128,0.0243 -0.1777679,0.0255 -0.07258,0 -0.1346042,-0.001 -0.1378043,-0.004 -0.00332,-0.003 -0.0062,-0.0799 -0.0062,-0.17019 v -0.13298 L 4.1561782,292.97898 H 4.025953 v 0.042 c 0,0.0424 6.35e-4,0.0422 0.086128,0.0462 0.083907,0.004 0.085996,0.005 0.094396,0.0475 0.0048,0.0238 0.00896,0.18495 0.00896,0.3576 0,0.3577 0.0081,0.33312 -0.124024,0.35072 -0.073907,0.01 -0.093896,0.0349 -0.057189,0.0717 0.01511,0.016 0.3864218,0.0231 0.4375286,0.01 0.030999,-0.008 0.033144,-0.0686 0.00275,-0.0806 -0.012242,-0.005 -0.040092,-0.009 -0.062012,-0.009 -0.08192,0 -0.08475,-0.005 -0.08475,-0.16123 v -0.14401 l 0.1715664,-0.009 c 0.1938781,-0.0109 0.2577216,-0.0353 0.3086816,-0.11782 0.025174,-0.0409 0.028339,-0.064 0.022737,-0.16881 -0.00268,-0.0513 -0.020331,-0.0509 -0.025492,-0.0717 z"
       id="path5195"
       inkscape:connector-curvature="0" />
    <path
       style="fill:#000000;stroke-width:0.01405157"
       d="m 9.1564079,291.52514 -0.3011026,-0.12333 c -0.095738,0.37022 -0.2764733,1.05142 -0.2928341,1.08383 -0.031697,0.0627 -0.07419,0.10564 -0.1357371,0.13711 -0.2013663,0.10326 -0.4328571,-0.0353 -0.4340837,-0.25976 -3.527e-4,-0.0649 0.060209,-0.30367 0.2983463,-1.19201 l -0.1419385,-0.0579 c -0.020387,0.11877 0.029743,0.0535 -0.088884,0.49541 -0.1193018,0.44439 -0.2235335,0.82648 -0.2322003,0.84888 -0.026254,0.0677 -0.070532,0.11916 -0.1322921,0.15503 -0.129671,0.0751 -0.2766271,0.0527 -0.3727608,-0.0565 -0.08388,-0.0953 -0.098087,-0.17384 -0.058567,-0.32867 0.05921,-0.23193 0.2754802,-1.03247 0.3576022,-1.32981 l -0.1088655,-0.0448 c -0.078651,0.2996 -0.2006717,0.76208 -0.2962794,1.11415 -0.059276,0.21827 -0.096457,0.27978 -0.2039504,0.33418 v 10e-4 c -0.094359,0.0465 -0.1671343,0.0483 -0.261828,0.004 -0.1174257,-0.0547 -0.1932192,-0.19989 -0.1674324,-0.32109 0.00891,-0.0419 0.2535042,-0.95939 0.3631144,-1.36426 l -0.1123104,-0.0462 c -0.024825,0.12134 -0.087974,0.38542 -0.1798348,0.72829 -0.1050537,0.3922 -0.197195,0.76069 -0.2053283,0.81856 -0.017759,0.12772 -0.00106,0.27556 0.04203,0.36449 0.016439,0.034 0.088661,0.12484 0.160542,0.20258 0.071895,0.0777 0.1593037,0.18462 0.194304,0.23702 0.1688111,0.25261 0.2716445,0.54859 0.2997243,0.86403 0.00997,0.11227 0.029432,0.14774 0.071658,0.13161 0.020253,-0.008 0.022468,-0.0254 0.014471,-0.1385 -0.022084,-0.31699 -0.1395721,-0.65656 -0.3169501,-0.9164 -0.031655,-0.0464 -0.057863,-0.0877 -0.057878,-0.0944 -1.87e-5,-0.004 0.3397661,-0.01 0.7551676,-0.0103 0.8476099,-10e-4 0.8363118,-4.9e-4 0.951539,-0.10197 0.089103,-0.0784 0.1112362,-0.12759 0.1901698,-0.42995 0.1378738,-0.52823 0.1681228,-0.63899 0.1763895,-0.647 0.00453,-0.005 0.00527,0.39882 0.00208,0.89711 -0.00485,0.7752 -0.00844,0.92162 -0.028251,1.01148 -0.1527963,0.69252 -0.6806423,1.19706 -1.3580614,1.30019 -0.3298413,0.05 -0.6426999,0.002 -0.9494716,-0.14745 -0.4107855,-0.1996 -0.7273553,-0.57625 -0.8550758,-1.017 -0.05752,-0.19843 -0.068656,-0.34521 -0.061323,-0.84749 0.00703,-0.48378 0.018373,-0.58563 0.093707,-0.87575 0.035671,-0.13739 0.2881238,-1.0813 0.4251262,-1.58888 l -0.1102434,-0.0455 c -0.026282,0.10282 -0.032463,0.13278 -0.061323,0.24322 -0.099961,0.38257 -0.2193799,0.83761 -0.2652736,1.01149 l -0.083372,0.31626 -0.00138,-1.73909 -0.2108405,-0.0861 c -0.0044,0.53352 -0.014355,0.14334 -0.014471,2.45085 v 4.37804 l 0.031694,0.0627 c 0.017389,0.0343 0.046826,0.07 0.066146,0.0806 v -0.001 c 0.027443,0.0133 0.1352534,0.0157 0.4919613,0.0117 0.3846989,-0.005 0.4855355,-0.0105 0.6394121,-0.0365 0.1004644,-0.0169 0.2066188,-0.0339 0.2356454,-0.0379 0.029041,-0.004 0.056367,-0.0127 0.060634,-0.0207 0.00428,-0.005 0.022253,-0.0117 0.040652,-0.0117 0.034541,0 0.1860902,-0.0491 0.3093706,-0.1006 0.3122081,-0.13041 0.4892213,-0.24559 0.7055581,-0.45888 0.2152676,-0.21222 0.331147,-0.39182 0.4644009,-0.71934 0.1009216,-0.24804 0.1782239,-0.65448 0.194304,-1.01838 0.00928,-0.2102 0.023502,-0.26728 0.075103,-0.31075 0.020348,-0.0171 0.051155,-0.058 0.068902,-0.0916 0.017748,-0.0337 0.048164,-0.0839 0.067524,-0.11093 0.019361,-0.0271 0.038586,-0.0661 0.042719,-0.0868 0.00417,-0.0208 0.016073,-0.0408 0.026871,-0.0448 0.010788,-0.004 0.019939,-0.0196 0.019981,-0.0331 3.98e-5,-0.0137 0.00849,-0.0415 0.019293,-0.062 0.042173,-0.0808 0.1065713,-0.32273 0.1281579,-0.483 0.019639,-0.14589 0.021516,-0.31988 0.017914,-1.29261 z"
       id="path5193"
       inkscape:connector-curvature="0" />
    <path
       style="fill:#000000;stroke-width:0.01405157"
       d="m 5.878732,287.60461 c -0.049853,0.009 -0.099577,0.0259 -0.1102434,0.0365 -0.010654,0.01 -0.025185,0.0193 -0.032385,0.0193 -0.027958,0 -0.1451873,0.10196 -0.1874139,0.1633 -0.024455,0.0355 -0.056027,0.11029 -0.07028,0.16536 -0.011345,0.0437 -0.00807,1.58529 -0.011712,2.02641 l 0.2108405,0.0861 v -0.14469 l -7.055e-4,-1.8831 0.035829,-0.0717 c 0.041559,-0.0834 0.1109949,-0.13672 0.2053287,-0.15778 0.1454244,-0.0323 0.2862125,0.0394 0.3431327,0.17501 0.0546,0.13001 0.038285,1.35223 -0.022049,1.65089 -0.011663,0.0577 -0.085452,0.34614 -0.1502066,0.59945 l 0.1102434,0.0455 c 0.010816,-0.0401 0.024606,-0.0916 0.033761,-0.1254 0.1222644,-0.45169 0.1261968,-0.46201 0.1688101,-0.47267 0.047934,-0.012 0.1678191,0.0577 0.2611394,0.15158 0.1515097,0.15246 0.2258424,0.37884 0.1977492,0.60152 -0.00106,0.008 -0.02261,0.0873 -0.026183,0.10473 l 0.1123104,0.0462 c 0.011966,-0.0442 0.031951,-0.11965 0.039963,-0.14883 0.03852,-0.14024 0.051112,-0.16753 0.1012861,-0.21979 0.042311,-0.0441 0.078177,-0.0662 0.1378043,-0.0834 0.074658,-0.0216 0.087217,-0.0215 0.159164,-7.1e-4 0.1542978,0.0448 0.2507219,0.20115 0.2170417,0.3514 -0.0031,0.0138 -0.065384,0.24328 -0.088884,0.3328 l 0.1088655,0.0448 c 0.013526,-0.049 0.055718,-0.21041 0.058567,-0.2191 0.036222,-0.1106 0.1717177,-0.2074 0.2900782,-0.2074 0.1000711,0 0.2144995,0.0729 0.2632063,0.16812 0.028007,0.0548 -0.065244,0.36042 -0.08475,0.47405 l 0.1419385,0.0579 c 0.00648,-0.0242 0.00152,-0.007 0.00827,-0.0324 0.030999,-0.11569 0.061541,-0.19915 0.084061,-0.22875 0.079488,-0.10374 0.205636,-0.14843 0.3286631,-0.11576 0.1305367,0.0348 0.24226,0.20435 0.2184199,0.33142 -0.00436,0.0233 -0.050687,0.18188 -0.075103,0.2763 l 0.3011025,0.12333 -0.00208,-0.57051 -0.035829,-0.0806 c -0.044267,-0.0996 -0.1174197,-0.20504 -0.1502066,-0.21705 -0.013518,-0.005 -0.036912,-0.0203 -0.052366,-0.0338 -0.015466,-0.0139 -0.065333,-0.0389 -0.1109327,-0.0558 -0.070842,-0.0267 -0.1026457,-0.0308 -0.2163527,-0.0241 l -0.1329812,0.008 -0.022737,-0.0441 c -0.035913,-0.0688 -0.1609441,-0.18616 -0.2425045,-0.22736 -0.083114,-0.0412 -0.2807123,-0.0644 -0.3293524,-0.0372 -0.03848,0.0215 -0.072465,-0.002 -0.1067982,-0.0751 -0.036016,-0.0767 -0.1322008,-0.16389 -0.2363345,-0.21429 -0.06842,-0.0335 -0.094406,-0.0379 -0.2204869,-0.0379 -0.1261231,0 -0.1476133,0.004 -0.1853469,0.0317 -0.023506,0.0181 -0.052479,0.0317 -0.064079,0.0317 -0.011518,0 -0.043698,-0.0391 -0.071658,-0.0868 -0.096999,-0.16551 -0.2506714,-0.3121 -0.4037669,-0.38516 -0.027573,-0.0131 -0.054167,-0.0375 -0.058567,-0.0537 -0.0044,-0.0162 -0.00816,-0.3313 -0.00827,-0.70073 -1.599e-4,-0.55287 -0.00361,-0.68875 -0.02136,-0.76688 -0.060093,-0.26422 -0.3287354,-0.4333 -0.60565,-0.38103 z"
       id="path5191"
       inkscape:connector-curvature="0" />
    <path
       style="fill:#000000;stroke-width:0.01405157"
       d="m 0,286.32509 v 0.77309 0.77239 l 2.0202113,0.004 c 1.110952,0.002 2.054186,10e-4 2.0966927,0 0.2652264,-0.0124 0.5304347,-0.0538 0.7028019,-0.10955 0.034777,-0.0112 0.1199209,-0.0372 0.1894811,-0.0579 0.069558,-0.0207 0.1911763,-0.0585 0.2700965,-0.0841 0.2280526,-0.0743 0.5186607,-0.10984 0.8033993,-0.0978 0.1265707,0.005 0.2750008,0.019 0.330041,0.031 0.05503,0.0116 0.1194408,0.0242 0.1426275,0.0283 0.023174,0.004 0.061768,0.0169 0.086128,0.0276 0.024345,0.0107 0.051123,0.02 0.059256,0.02 0.013518,0 0.2749648,0.0798 0.3741388,0.11438 0.099195,0.0345 0.3631627,0.0954 0.4788697,0.10886 0.085654,0.0115 0.808899,0.0151 2.2861737,0.0152 L 12,287.87126 v -0.77308 -0.77309 H 5.9999998 Z"
       id="path32"
       inkscape:connector-curvature="0" />
  </g>
</svg>
